<?xml version="1.0" encoding="UTF-8" standalone="no"?>
<svg width="415.78641"
     height="375.02026"
     id="svg2"
     version="1.0">
	<g transform="translate(-170.5437,-277.09375)">
		<g id="g9937">
			<path style="fill:#317ddb;fill-opacity:1;fill-rule:evenodd;stroke:none;stroke-width:1px;stroke-linecap:butt;stroke-linejoin:miter;stroke-opacity:1"
			      d="M 218.125 0 C 174.81592 0 134.96221 14.80092 103.375 39.59375 C 100.3273 37.71728 29.1317 -5.65691 4.65625 25.09375 C -15.59932 50.5426 36.96875 121.68749 36.96875 121.6875 L 47.5 100.625 C 47.500001 100.625 14.75862 55.05148 27.3125 37.59375 C 38.458459 22.0939 90.50805 46.99943 93.09375 48.25 C 75.791704 63.968637 61.478981 82.895197 51.125 104.09375 C 78.928045 149.72389 167.50904 233.15336 184.96875 242.0625 C 197.98344 232.05286 201.01105 211.1953 175.4375 187.375 C 156.04592 159.23341 145.82257 130.36587 124.9375 116.90625 C 108.24985 106.15172 86.738471 110.40375 85.75 101.5625 C 82.58001 101.88295 87.544091 76.33151 119.71875 75.5 C 124.98369 75.36394 130.97473 75.90366 137.78125 77.3125 C 177.31461 85.49524 182.67481 123.79245 196.09375 129.375 C 224.88845 141.35416 324.43497 162.35228 274.9375 304.53125 C 291.40497 314.72977 304.15993 322.72331 325.8125 335.3125 C 345.10244 321.58322 361.68502 304.29243 374.5 284.375 C 375.73555 286.2847 406.77042 334.56098 393.75 349.1875 C 380.33653 364.25552 329.65625 339.5625 329.65625 339.5625 L 311.4375 351.6875 C 311.43749 351.68749 382.2675 393.057 409.125 365.625 C 433.81786 340.40743 382.08082 273.24319 381.53125 272.53125 C 395.69338 246.43174 403.71876 216.5737 403.71875 184.84375 C 403.71875 82.81167 320.57529 -7.5791225e-14 218.125 0 z M 309.15625 75 C 314.05086 74.8602 319.4035 76.41387 324.125 81.6875 C 337.89156 97.06396 327.8538 107.77121 324.28125 111.34375 C 320.79912 114.82589 301.47768 133.22768 298.21875 135.28125 C 295.08661 137.25493 280.24601 145.38701 269.46875 133.65625 C 258.77997 122.00586 264.64732 108.71875 266.96875 105.4375 C 269.37511 102.03619 290.47129 82.43749 294.8125 79.71875 C 297.29855 78.16182 302.86317 75.17975 309.15625 75 z M 336.28125 120.28125 C 341.27961 120.23339 346.85386 122.094 351.90625 127.75 C 363.88707 141.16216 355.2913 154.70871 351.71875 158.28125 C 348.2366 161.76338 329.10268 180.69643 325.84375 182.75 C 322.71161 184.72368 308.74601 191.98076 297.96875 180.25 C 287.27997 168.59961 293.14732 155.3125 295.46875 152.03125 C 297.87511 148.62994 318.4794 129.17113 323.15625 125.0625 C 325.69393 122.83314 330.61645 120.3355 336.28125 120.28125 z M 41.6875 127.34375 C 35.739889 145.44778 32.53125 164.76949 32.53125 184.84375 C 32.531251 242.23679 58.841078 293.5565 100.09375 327.46875 C 128.50231 299.80586 147.01771 281.85729 170.40625 258.5625 C 146.33065 237.73269 65.988571 166.29638 41.59375 127.75 C 41.635847 127.58941 41.646975 127.49945 41.6875 127.34375 z M 348.78125 184.84375 C 352.83775 184.65353 357.29184 185.62705 361.53125 189 C 370.1048 195.82122 371.17969 210.96764 367.25 217.21875 C 363.34799 223.42583 356.41518 229.97768 353.15625 232.03125 C 350.02409 234.00494 335.42907 236.90726 327.96875 229.71875 C 318.12777 220.2363 322.27232 206.21875 324.59375 202.9375 C 327.00011 199.53619 332.19004 191.53124 336.53125 188.8125 C 339.0173 187.25559 343.56575 185.08832 348.78125 184.84375 z M 262.5 322.75 L 219.0625 369.6875 C 249.77691 369.53526 278.71446 361.94693 304.1875 348.625 L 262.5 322.75 z "
			      transform="translate(170.5437,277.09375)"
			      id="path1933" />
		</g>
	</g>
</svg>
